<?xml version="1.0" encoding="UTF-8" standalone="no"?>
<!-- Generator: Adobe Illustrator 19.0.1, SVG Export Plug-In . SVG Version: 6.00 Build 0)  -->

<svg
   xmlns:dc="http://purl.org/dc/elements/1.1/"
   xmlns:cc="http://creativecommons.org/ns#"
   xmlns:rdf="http://www.w3.org/1999/02/22-rdf-syntax-ns#"
   xmlns:svg="http://www.w3.org/2000/svg"
   xmlns="http://www.w3.org/2000/svg"
   xmlns:sodipodi="http://sodipodi.sourceforge.net/DTD/sodipodi-0.dtd"
   xmlns:inkscape="http://www.inkscape.org/namespaces/inkscape"
   version="1.1"
   id="Layer_1"
   x="0px"
   y="0px"
   viewBox="0 0 372.69516 68.069441"
   xml:space="preserve"
   inkscape:version="0.91 r13725"
   sodipodi:docname="AE_logo_rus_kriv_2.svg"
   width="372.69516"
   height="68.069443"><metadata
   id="metadata3441"><rdf:RDF><cc:Work
       rdf:about=""><dc:format>image/svg+xml</dc:format><dc:type
         rdf:resource="http://purl.org/dc/dcmitype/StillImage" /><dc:title></dc:title></cc:Work></rdf:RDF></metadata><defs
   id="defs3439" /><sodipodi:namedview
   pagecolor="#ffffff"
   bordercolor="#666666"
   borderopacity="1"
   objecttolerance="10"
   gridtolerance="10"
   guidetolerance="10"
   inkscape:pageopacity="0"
   inkscape:pageshadow="2"
   inkscape:window-width="1280"
   inkscape:window-height="961"
   id="namedview3437"
   showgrid="false"
   inkscape:snap-text-baseline="true"
   fit-margin-top="0"
   fit-margin-left="0"
   fit-margin-right="0"
   fit-margin-bottom="0"
   inkscape:zoom="0.37316011"
   inkscape:cx="-54.453845"
   inkscape:cy="352.42057"
   inkscape:window-x="-8"
   inkscape:window-y="-8"
   inkscape:window-maximized="1"
   inkscape:current-layer="Layer_1" />
<style
   type="text/css"
   id="style3337">
	.st0{fill:#224957;}
	.st1{fill:#D91C59;}
</style>
<path
   class="st0"
   d="m 56.3,46.369441 -7.4,-17.1 0,0 -1.7,-3.9 c 0,0 0,-0.1 0,-0.1 l 0,0 c 0,0 -0.1,-0.1 -0.1,-0.1 -0.2,-0.3 -0.3,-0.6 -0.6,-0.9 -0.1,-0.1 -0.3,-0.2 -0.4,-0.3 -0.2,-0.1 -0.3,-0.3 -0.5,-0.4 0,0 0,0 -0.1,0 -0.2,-0.1 -0.5,-0.1 -0.7,-0.1 -0.2,0 -0.3,-0.1 -0.5,-0.1 -0.2,0 -0.3,0.1 -0.5,0.1 -0.2,0 -0.5,0.1 -0.7,0.1 0,0 0,0 -0.1,0 -0.2,0.1 -0.3,0.2 -0.5,0.4 -0.1,0.1 -0.3,0.2 -0.4,0.3 -0.3,0.3 -0.4,0.5 -0.6,0.9 0,0 -0.1,0.1 -0.1,0.1 l 0,0 c 0,0 0,0.1 0,0.1 l -1.7,3.9 0,0 -7.4,17.1 c -0.7,1.6 0,3.4 1.6,4.1 1.6,0.7 3.4,-0.1 4.1,-1.6 l 5.6,-13 c 0,0 0,0 0,0 l 0.4,-0.9 0.2,-0.6 0.2,0.6 0.4,0.9 c 0,0 0,0 0,0 l 5.6,13 c 0.7,1.6 2.5,2.3 4.1,1.6 1.8,-0.6 2.5,-2.5 1.8,-4.1 z"
   id="path3339"
   inkscape:connector-curvature="0"
   style="fill:#224957" />
<path
   class="st1"
   d="m 194.1,46.369441 -7.4,-17.1 0,0 -1.7,-3.9 c 0,0 0,-0.1 0,-0.1 l 0,0 c 0,0 -0.1,-0.1 -0.1,-0.1 -0.2,-0.3 -0.3,-0.6 -0.6,-0.9 -0.1,-0.1 -0.3,-0.2 -0.4,-0.3 -0.2,-0.1 -0.3,-0.3 -0.5,-0.4 0,0 0,0 -0.1,0 -0.2,-0.1 -0.5,-0.1 -0.7,-0.1 -0.2,0 -0.3,-0.1 -0.5,-0.1 -0.2,0 -0.3,0.1 -0.5,0.1 -0.2,0 -0.5,0.1 -0.7,0.1 0,0 0,0 -0.1,0 -0.2,0.1 -0.3,0.2 -0.5,0.4 -0.1,0.1 -0.3,0.2 -0.4,0.3 -0.3,0.3 -0.4,0.5 -0.6,0.9 0,0 -0.1,0.1 -0.1,0.1 l 0,0 c 0,0 0,0.1 0,0.1 l -1.7,3.9 0,0 -7.4,17.1 c -0.7,1.6 0,3.4 1.6,4.1 1.6,0.7 3.4,-0.1 4.1,-1.6 l 5.6,-13 c 0,0 0,0 0,0 l 0.4,-0.9 0.2,-0.6 0.2,0.6 0.4,0.9 c 0,0 0,0 0,0 l 5.6,13 c 0.7,1.6 2.5,2.3 4.1,1.6 1.7,-0.6 2.5,-2.5 1.8,-4.1 z"
   id="path3341"
   inkscape:connector-curvature="0"
   style="fill:#d91c59" />

<path
   class="st1"
   d="m 247.6,45.569441 -7.8,-8.7 7.5,-8.3 c 1.1,-1.3 0.7,-3.3 -0.6,-4.3 -1.3,-1.1 -3.5,-0.6 -4.6,0.6 0,0 -7.4,7.7 -7.5,7.9 -0.3,0.4 -0.7,0.4 -0.8,0.3 -0.1,-0.1 -0.3,-0.3 -0.3,-0.6 0,-0.1 0,-17.6 0,-17.6 0,-1.7 -1.4,-3 -3,-3 -1.7,0 -3,1.4 -3,3 l 0,33 c 0,1.7 1.4,3 3,3 1.7,0 3,-1.4 3,-3 0,0 0,-6.9 0,-7.2 0,-0.2 0.2,-0.4 0.2,-0.5 0.2,-0.1 0.6,-0.2 0.8,0 0.2,0.2 8.2,9.7 8.2,9.7 0.6,0.7 1.5,1.1 2.3,1.1 0.7,0 1.4,-0.2 1.9,-0.7 1.3,-1.2 1.8,-3.2 0.7,-4.7 z"
   id="path3405"
   inkscape:connector-curvature="0"
   style="fill:#d91c59" />
<path
   class="st0"
   d="m 24.1,23.569441 c -1.4,0 -2.6,1.1 -2.9,2.4 -2.2,-1.5 -4.8,-2.4 -7.7,-2.4 -7.4,0 -13.5,6.1 -13.5,13.5 0,7.4 6,13.5 13.5,13.5 2.9,0 5.5,-0.9 7.7,-2.4 0.3,1.4 1.4,2.4 2.9,2.4 1.6,0 3,-1.3 3,-3 l 0,-21 c 0,-1.6 -1.3,-3 -3,-3 m -10.5,21.1 c -4.2,0 -7.6,-3.4 -7.6,-7.5 0,-4.2 3.4,-7.6 7.6,-7.6 4.2,0 7.6,3.4 7.6,7.6 0,4.1 -3.4,7.5 -7.6,7.5"
   id="path3407"
   inkscape:connector-curvature="0"
   style="fill:#224957" />
<path
   class="st0"
   d="m 120.4,23.769441 c -2.5,0 -4.5,0.8 -6.3,2.3 -0.9,0.8 -0.7,0.8 -0.7,0.2 0,-0.1 0,-1.1 0,-1.3 l 0,-2.2 c 0,-1.4 -1.2,-2.6 -2.7,-2.6 -1.5,0 -2.7,1.2 -2.7,2.6 l 0,3.7 c -1.9,-1.4 -4,-2.7 -6.5,-2.7 -6.9,0 -12.6,5.7 -12.6,13.1 0,7.4 5.6,13.5 12.5,13.5 2.4,0 4.7,-1.3 6.6,-2.6 l 0,3.4 c 0,1.4 1.2,2.6 2.7,2.6 1.5,0 2.7,-1.2 2.7,-2.6 l 0,-2.4 c 0,-2 -0.2,-1.4 0.4,-1.1 1.9,1.4 4.1,2.5 6.6,2.5 6.9,0 12.5,-6 12.5,-13.5 -0.1,-7.3 -5.6,-12.9 -12.5,-12.9 z m -19.2,20.6 c -3.9,0 -7,-3.4 -7,-7.5 0,-4.2 3.1,-7.5 7,-7.5 3.1,0 6.5,2.2 6.6,5.1 l 0,4.9 c 0,3.4 -3.5,5 -6.6,5 z m 19.1,0 c -3.1,0 -6.6,-1.8 -6.6,-5.1 l 0,-4.9 c 0,-2.3 1.8,-5.1 6.6,-5.1 3.9,0 7,3.4 7,7.5 0,4.2 -3.1,7.6 -7,7.6 z"
   id="path3409"
   inkscape:connector-curvature="0"
   style="fill:#224957" />
<path
   class="st1"
   d="m 291.5,23.069441 c -0.4,0 -0.9,0 -1.3,0 -0.2,0 -0.7,0.1 -0.9,0.1 -1.1,0.2 -1.8,0.4 -2.8,0.8 -1,0.4 -1.9,0.8 -2.8,1.4 -0.8,0.5 -1.5,1.1 -2.1,1.7 -0.7,0.6 -1.1,1.2 -1.6,2 -0.5,0.8 -1.1,1.5 -1.4,2.5 -0.2,0.6 -0.4,1.2 -0.5,1.9 -0.1,0.5 -0.1,0.7 -0.2,1.3 l -0.1,1.6 0,0.5 0,10.7 0,0.3 0,17.5 c 0,1.5 1.3,2.7 3,2.7 1.7,0 3,-1.2 3,-2.7 l 0,-16.8 0,-0.4 c 0,0 0,0 0.1,0 2.2,1.5 4.8,2.3 7.6,2.3 7.6,0 13.7,-6.2 13.7,-13.8 0.1,-7.4 -6.1,-13.6 -13.7,-13.6 z m 0,21.5 c -3.8,0 -7,-2.8 -7.6,-6.5 -0.1,-0.4 -0.1,-0.8 -0.1,-1.2 l 0,0 c 0,-0.4 0,-0.8 0.1,-1.2 0.6,-3.7 3.8,-6.5 7.6,-6.5 4.2,0 7.7,3.5 7.7,7.7 0,4.2 -3.4,7.7 -7.7,7.7 z"
   id="path3411"
   inkscape:connector-curvature="0"
   style="fill:#d91c59" />
<path
   class="st1"
   d="m 321.2,23.369441 c -7.5,0 -13.6,6.1 -13.6,13.6 0,7.5 6.1,13.6 13.6,13.6 7.5,0 13.6,-6.1 13.6,-13.6 0,-7.5 -6.1,-13.6 -13.6,-13.6 m 0,21.3 c -4.2,0 -7.6,-3.4 -7.6,-7.6 0,-4.2 3.4,-7.6 7.6,-7.6 4.2,0 7.6,3.4 7.6,7.6 0,4.1 -3.4,7.6 -7.6,7.6"
   id="path3413"
   inkscape:connector-curvature="0"
   style="fill:#d91c59" />




<g
   id="g3423"
   transform="translate(-152.4,-163.23056)">
	<path
   class="st1"
   d="m 320,200.3 c 0,-7.6 -6.1,-13.7 -13.7,-13.7 -0.8,0 -1.6,0.1 -2.3,0.2 -0.2,0 -0.3,0.1 -0.5,0.1 -0.6,0.1 -1.2,0.3 -1.8,0.5 -0.1,0.1 -0.3,0.1 -0.4,0.2 -0.8,0.3 -1.6,0.7 -2.3,1.1 l 0.1,0 c -0.7,0.4 -1.3,0.9 -1.9,1.4 -1.2,1.1 -1.3,3 -0.2,4.2 1.1,1.2 3,1.3 4.2,0.2 1.1,-1 2.4,-1.6 3.7,-1.9 0,0 0,0 0,0 0.5,-0.1 0.9,-0.1 1.4,-0.1 4.2,0 7.7,3.4 7.7,7.7 0,4.2 -3.4,7.7 -7.7,7.7 -0.5,0 -0.9,0 -1.4,-0.1 0,0 0,0 0,0 -1.4,-0.3 -2.6,-0.9 -3.7,-1.9 -1.2,-1.1 -3.1,-1 -4.2,0.2 -1.1,1.2 -1,3.1 0.2,4.2 0.6,0.5 1.2,1 1.9,1.4 l -0.1,0 c 0.7,0.5 1.5,0.8 2.3,1.1 0.1,0.1 0.3,0.1 0.4,0.2 0.6,0.2 1.2,0.4 1.8,0.5 0.2,0 0.3,0.1 0.5,0.1 0.8,0.1 1.5,0.2 2.3,0.2 7.5,0.2 13.7,-5.9 13.7,-13.5 0,0 0,0 0,0 0,0 0,0 0,0 z"
   id="path3425"
   inkscape:connector-curvature="0"
   style="fill:#d91c59" />
	<path
   class="st1"
   d="m 303.8,197.3 c -1.7,0 -3,1.3 -3,3 0,1.6 1.3,3 3,3 l 6.8,0 3.2,0 2.9,0 0,-6 -12.9,0 z"
   id="path3427"
   inkscape:connector-curvature="0"
   style="fill:#d91c59" />
</g>
<path
   class="st0"
   d="m 72.9,40.169441 9.7,0 c 1.7,0 3,-1.3 3,-3 0.2,-7.6 -5.6,-13.7 -13.2,-13.7 -7.6,0 -13.4,6.1 -13.4,13.7 0,7.5 5.8,13.7 13.4,13.7 3.4,0 6.6,-1.3 9.2,-3.6 1.4,-1.2 1.9,-2.4 1.8,-3.1 -0.1,-0.7 -0.3,-1.2 -1.3,-1.8 -0.5,-0.3 -0.5,-0.3 -1,-0.4 -0.2,-0.1 -0.3,-0.1 -0.5,-0.1 -1,-0.1 -2.4,0.4 -3.1,1 -1.5,1.2 -3.3,1.9 -5.2,1.9 -3.2,0 -6.1,-1.9 -7.3,-4.7 l 7.9,0 0,0.1 z m -3.6,-6 -4.3,0 c 1.2,-2.8 4.2,-4.7 7.3,-4.7 3.2,0 5.9,1.9 7.1,4.7 l -10,0 c 0,0 0,0 -0.1,0 z"
   id="path3429"
   inkscape:connector-curvature="0"
   style="fill:#224957" />
<path
   class="st1"
   d="m 210.3,40.069441 9.8,0 c 1.7,0 3,-1.4 3,-3 0.2,-7.6 -5.7,-13.9 -13.3,-13.9 -7.6,0 -13.5,6.2 -13.5,13.9 0,7.6 5.9,13.9 13.5,13.9 3.4,0 6.7,-1.4 9.3,-3.6 1.4,-1.2 1.9,-2.4 1.9,-3.1 -0.1,-0.7 -0.3,-1.3 -1.3,-1.8 -0.5,-0.3 -0.6,-0.3 -1,-0.4 -0.2,-0.1 -0.3,-0.1 -0.5,-0.1 -1,-0.1 -2.4,0.4 -3.1,1 -1.5,1.2 -3.4,2 -5.3,2 -3.2,0 -6.2,-2 -7.4,-4.7 l 7.9,-0.2 0,0 z m -3.6,-6.1 -4.3,0 c 1.2,-2.8 4.2,-4.8 7.4,-4.8 3.2,0 6,2 7.1,4.7 l -10.1,0 c 0,0.1 -0.1,0.1 -0.1,0.1 z"
   id="path3431"
   inkscape:connector-curvature="0"
   style="fill:#d91c59" />
<path
   class="st1"
   d="m 273.5,23.569441 -7.6,0 -4.6,0 -7.6,0 c -1.5,0 -2.8,1.4 -2.8,3.1 0,1.7 1.3,3.2 2.8,3.2 l 1.7,0 5.1,0 6.3,0 5,0 1.8,0 c 1.5,0 2.8,-1.4 2.8,-3.2 -0.1,-1.7 -1.3,-3.1 -2.9,-3.1 z"
   id="path3433"
   inkscape:connector-curvature="0"
   style="fill:#d91c59" />
<path
   class="st1"
   d="m 263.6,50.969441 c 1.7,0 3.2,-1.2 3.2,-2.8 l 0,-18.6 -6.3,0 0,18.6 c -0.1,1.5 1.4,2.8 3.1,2.8 z"
   id="path3435"
   inkscape:connector-curvature="0"
   style="fill:#d91c59" />
</svg>