<svg width="19" height="20" viewBox="0 0 19 20" fill="none" xmlns="http://www.w3.org/2000/svg">
<path fill-rule="evenodd" clip-rule="evenodd" d="M10.385 18.486C8.43235 20.4386 5.26653 20.4386 3.31391 18.486C1.36129 16.5334 1.36129 13.3675 3.31391 11.4149L8.97076 5.75807C10.1423 4.5865 12.0418 4.5865 13.2134 5.75807C14.385 6.92965 14.385 8.82914 13.2134 10.0007L7.55655 15.6576C7.16602 16.0481 6.53286 16.0481 6.14233 15.6576C5.75181 15.267 5.75181 14.6339 6.14233 14.2434L11.7992 8.5865L11.8769 8.49928C12.1877 8.10676 12.1618 7.53492 11.7992 7.17229C11.4366 6.80966 10.8647 6.78376 10.4722 7.09458L10.385 7.17229L4.72812 12.8291C3.55655 14.0007 3.55655 15.9002 4.72812 17.0718C5.89969 18.2434 7.79919 18.2434 8.97076 17.0718L14.6276 11.4149C16.5802 9.46231 16.5802 6.29648 14.6276 4.34386C12.7264 2.44262 9.67495 2.39259 7.71318 4.19376L7.55655 4.34386L1.89969 10.0007C1.50917 10.3912 0.876005 10.3912 0.485481 10.0007C0.0949562 9.61019 0.0949562 8.97703 0.485481 8.5865L6.14233 2.92965C8.87601 0.195977 13.3082 0.195977 16.0418 2.92965C18.7755 5.66332 18.7755 10.0955 16.0418 12.8291L10.385 18.486Z" fill="#686868"/>
</svg>
